<?xml version="1.0" encoding="UTF-8" standalone="no"?>
<!DOCTYPE svg PUBLIC "-//W3C//DTD SVG 1.1//EN"
 "http://www.w3.org/Graphics/SVG/1.1/DTD/svg11.dtd">
<!-- Generated by graphviz version 2.40.1 (20161225.0304)
 -->
<!-- Title: automaton Pages: 1 -->
<svg width="138pt" height="87pt"
 viewBox="0.00 0.00 138.00 86.80" xmlns="http://www.w3.org/2000/svg" xmlns:xlink="http://www.w3.org/1999/xlink">
<g id="graph0" class="graph" transform="scale(1 1) rotate(0) translate(4 82.8)">
<title>automaton</title>
<polygon fill="#ffffff" stroke="transparent" points="-4,4 -4,-82.8 134,-82.8 134,4 -4,4"/>
<!-- 0 -->
<g id="node1" class="node">
<title>0</title>
<ellipse fill="none" stroke="#000000" cx="112" cy="-22" rx="18" ry="18"/>
<text text-anchor="middle" x="112" y="-17.8" font-family="Times,serif" font-size="14.00" fill="#000000">0</text>
</g>
<!-- 0&#45;&gt;0 -->
<g id="edge1" class="edge">
<title>0&#45;&gt;0</title>
<path fill="none" stroke="#000000" d="M104.6172,-38.6641C102.9766,-48.625 105.4375,-58 112,-58 116.2041,-58 118.7249,-54.1525 119.5625,-48.7682"/>
<polygon fill="#000000" stroke="#000000" points="123.0601,-48.6002 119.3828,-38.6641 116.0612,-48.7247 123.0601,-48.6002"/>
<text text-anchor="middle" x="112" y="-62.2" font-family="Times,serif" font-size="14.00" fill="#000000">true</text>
</g>
<!-- 1 -->
<g id="node2" class="node">
<title>1</title>
<ellipse fill="none" stroke="#000000" cx="22" cy="-22" rx="18" ry="18"/>
<ellipse fill="none" stroke="#000000" cx="22" cy="-22" rx="22" ry="22"/>
<text text-anchor="middle" x="22" y="-17.8" font-family="Times,serif" font-size="14.00" fill="#000000">1</text>
</g>
<!-- 1&#45;&gt;0 -->
<g id="edge3" class="edge">
<title>1&#45;&gt;0</title>
<path fill="none" stroke="#000000" d="M44.2472,-22C56.2033,-22 71.0674,-22 83.8243,-22"/>
<polygon fill="#000000" stroke="#000000" points="83.9343,-25.5001 93.9343,-22 83.9342,-18.5001 83.9343,-25.5001"/>
<text text-anchor="middle" x="69" y="-26.2" font-family="Times,serif" font-size="14.00" fill="#000000">p0</text>
</g>
<!-- 1&#45;&gt;1 -->
<g id="edge2" class="edge">
<title>1&#45;&gt;1</title>
<path fill="none" stroke="#000000" d="M13.6298,-42.5808C12.4716,-52.8447 15.2617,-62 22,-62 26.3167,-62 29.0131,-58.2427 30.0891,-52.8436"/>
<polygon fill="#000000" stroke="#000000" points="33.595,-52.6729 30.3702,-42.5808 26.5976,-52.4812 33.595,-52.6729"/>
<text text-anchor="middle" x="22" y="-66.2" font-family="Times,serif" font-size="14.00" fill="#000000">!p0</text>
</g>
</g>
</svg>
