<?xml version="1.0" encoding="UTF-8" standalone="no"?>
<!DOCTYPE svg PUBLIC "-//W3C//DTD SVG 1.1//EN"
 "http://www.w3.org/Graphics/SVG/1.1/DTD/svg11.dtd">
<!-- Generated by graphviz version 2.40.1 (20161225.0304)
 -->
<!-- Title: automaton Pages: 1 -->
<svg width="1438pt" height="464pt"
 viewBox="0.00 0.00 1438.02 463.80" xmlns="http://www.w3.org/2000/svg" xmlns:xlink="http://www.w3.org/1999/xlink">
<g id="graph0" class="graph" transform="scale(1 1) rotate(0) translate(4 459.8)">
<title>automaton</title>
<polygon fill="#ffffff" stroke="transparent" points="-4,4 -4,-459.8 1434.021,-459.8 1434.021,4 -4,4"/>
<!-- 0 -->
<g id="node1" class="node">
<title>0</title>
<ellipse fill="none" stroke="#000000" cx="1408.021" cy="-106" rx="18" ry="18"/>
<ellipse fill="none" stroke="#000000" cx="1408.021" cy="-106" rx="22" ry="22"/>
<text text-anchor="middle" x="1408.021" y="-101.8" font-family="Times,serif" font-size="14.00" fill="#000000">0</text>
</g>
<!-- 0&#45;&gt;0 -->
<g id="edge1" class="edge">
<title>0&#45;&gt;0</title>
<path fill="none" stroke="#000000" d="M1399.6508,-126.5808C1398.4926,-136.8447 1401.2827,-146 1408.021,-146 1412.3377,-146 1415.0341,-142.2427 1416.1101,-136.8436"/>
<polygon fill="#000000" stroke="#000000" points="1419.616,-136.6729 1416.3912,-126.5808 1412.6186,-136.4812 1419.616,-136.6729"/>
<text text-anchor="middle" x="1408.021" y="-150.2" font-family="Times,serif" font-size="14.00" fill="#000000">true</text>
</g>
<!-- 1 -->
<g id="node2" class="node">
<title>1</title>
<ellipse fill="none" stroke="#000000" cx="1313.0757" cy="-246" rx="18" ry="18"/>
<text text-anchor="middle" x="1313.0757" y="-241.8" font-family="Times,serif" font-size="14.00" fill="#000000">1</text>
</g>
<!-- 1&#45;&gt;0 -->
<g id="edge3" class="edge">
<title>1&#45;&gt;0</title>
<path fill="none" stroke="#000000" d="M1323.2365,-231.0175C1339.1039,-207.6205 1369.995,-162.0706 1389.7851,-132.8895"/>
<polygon fill="#000000" stroke="#000000" points="1392.8253,-134.6423 1395.5415,-124.4015 1387.0319,-130.7133 1392.8253,-134.6423"/>
<text text-anchor="middle" x="1361.021" y="-189.2" font-family="Times,serif" font-size="14.00" fill="#000000">p5</text>
</g>
<!-- 1&#45;&gt;1 -->
<g id="edge2" class="edge">
<title>1&#45;&gt;1</title>
<path fill="none" stroke="#000000" d="M1305.0593,-262.2903C1303.1262,-272.3892 1305.7984,-282 1313.0757,-282 1317.7377,-282 1320.5098,-278.0557 1321.3919,-272.5656"/>
<polygon fill="#000000" stroke="#000000" points="1324.8824,-272.1839 1321.0921,-262.2903 1317.8854,-272.3881 1324.8824,-272.1839"/>
<text text-anchor="middle" x="1313.0757" y="-286.2" font-family="Times,serif" font-size="14.00" fill="#000000">!p5</text>
</g>
<!-- 2 -->
<g id="node3" class="node">
<title>2</title>
<ellipse fill="none" stroke="#000000" cx="1121.5133" cy="-182" rx="18" ry="18"/>
<text text-anchor="middle" x="1121.5133" y="-177.8" font-family="Times,serif" font-size="14.00" fill="#000000">2</text>
</g>
<!-- 2&#45;&gt;0 -->
<g id="edge6" class="edge">
<title>2&#45;&gt;0</title>
<path fill="none" stroke="#000000" d="M1139.0044,-177.3603C1186.2077,-164.8389 1316.6799,-130.2294 1376.8652,-114.2645"/>
<polygon fill="#000000" stroke="#000000" points="1377.8069,-117.6358 1386.5752,-111.6888 1376.012,-110.8698 1377.8069,-117.6358"/>
<text text-anchor="middle" x="1313.0757" y="-141.2" font-family="Times,serif" font-size="14.00" fill="#000000">p5 &amp; p4</text>
</g>
<!-- 2&#45;&gt;1 -->
<g id="edge5" class="edge">
<title>2&#45;&gt;1</title>
<path fill="none" stroke="#000000" d="M1138.7383,-187.4344C1166.7798,-196.3246 1224.0068,-214.6472 1272.1304,-231.2 1276.7987,-232.8057 1281.7501,-234.5555 1286.5363,-236.2712"/>
<polygon fill="#000000" stroke="#000000" points="1285.3907,-239.5787 1295.985,-239.6882 1287.7714,-232.9959 1285.3907,-239.5787"/>
<text text-anchor="middle" x="1233.2398" y="-236.2" font-family="Times,serif" font-size="14.00" fill="#000000">!p5 &amp; p4</text>
</g>
<!-- 2&#45;&gt;2 -->
<g id="edge4" class="edge">
<title>2&#45;&gt;2</title>
<path fill="none" stroke="#000000" d="M1106.3719,-192.3189C1095.6263,-204.2173 1100.6735,-218 1121.5133,-218 1137.306,-218 1144.0293,-210.0849 1141.6831,-201.0728"/>
<polygon fill="#000000" stroke="#000000" points="1144.6706,-199.2469 1136.6547,-192.3189 1138.6007,-202.7335 1144.6706,-199.2469"/>
<text text-anchor="middle" x="1121.5133" y="-222.2" font-family="Times,serif" font-size="14.00" fill="#000000">!p4</text>
</g>
<!-- 3 -->
<g id="node4" class="node">
<title>3</title>
<ellipse fill="none" stroke="#000000" cx="802.3885" cy="-94" rx="18" ry="18"/>
<text text-anchor="middle" x="802.3885" y="-89.8" font-family="Times,serif" font-size="14.00" fill="#000000">3</text>
</g>
<!-- 3&#45;&gt;0 -->
<g id="edge10" class="edge">
<title>3&#45;&gt;0</title>
<path fill="none" stroke="#000000" d="M820.6185,-94.2585C861.4539,-94.8459 963.3788,-96.3578 1048.6774,-98 1169.2874,-100.322 1312.654,-103.699 1375.6316,-105.2136"/>
<polygon fill="#000000" stroke="#000000" points="1375.6531,-108.715 1385.7346,-105.4572 1375.8219,-101.7171 1375.6531,-108.715"/>
<text text-anchor="middle" x="1233.2398" y="-107.2" font-family="Times,serif" font-size="14.00" fill="#000000">p5 &amp; p4 &amp; p3</text>
</g>
<!-- 3&#45;&gt;1 -->
<g id="edge9" class="edge">
<title>3&#45;&gt;1</title>
<path fill="none" stroke="#000000" d="M820.6973,-95.016C886.3691,-98.8372 1109.7167,-113.4058 1176.3492,-138.2 1225.13,-156.3515 1270.1453,-198.8541 1294.3921,-224.7386"/>
<polygon fill="#000000" stroke="#000000" points="1291.8917,-227.1906 1301.2313,-232.1929 1297.0497,-222.4582 1291.8917,-227.1906"/>
<text text-anchor="middle" x="1121.5133" y="-143.2" font-family="Times,serif" font-size="14.00" fill="#000000">!p5 &amp; p4 &amp; p3</text>
</g>
<!-- 3&#45;&gt;2 -->
<g id="edge8" class="edge">
<title>3&#45;&gt;2</title>
<path fill="none" stroke="#000000" d="M819.6474,-99.6149C840.2768,-106.1697 875.9275,-117.0024 907.115,-124 969.3243,-137.9579 987.8464,-128.1105 1048.6774,-147.2 1065.4083,-152.4504 1083.1843,-160.8819 1096.9868,-168.1305"/>
<polygon fill="#000000" stroke="#000000" points="1095.3826,-171.2419 1105.8459,-172.9062 1098.7042,-165.0801 1095.3826,-171.2419"/>
<text text-anchor="middle" x="977.8962" y="-152.2" font-family="Times,serif" font-size="14.00" fill="#000000">!p4 &amp; p3</text>
</g>
<!-- 3&#45;&gt;3 -->
<g id="edge7" class="edge">
<title>3&#45;&gt;3</title>
<path fill="none" stroke="#000000" d="M785.1839,-100.3666C759.9505,-112.9141 765.6854,-130 802.3885,-130 833.9302,-130 842.6011,-117.3816 828.4012,-105.8692"/>
<polygon fill="#000000" stroke="#000000" points="829.9286,-102.6965 819.5931,-100.3666 826.2198,-108.6333 829.9286,-102.6965"/>
<text text-anchor="middle" x="802.3885" y="-134.2" font-family="Times,serif" font-size="14.00" fill="#000000">!p3</text>
</g>
<!-- 4 -->
<g id="node5" class="node">
<title>4</title>
<ellipse fill="none" stroke="#000000" cx="428.4369" cy="-317" rx="18" ry="18"/>
<text text-anchor="middle" x="428.4369" y="-312.8" font-family="Times,serif" font-size="14.00" fill="#000000">4</text>
</g>
<!-- 4&#45;&gt;0 -->
<g id="edge15" class="edge">
<title>4&#45;&gt;0</title>
<path fill="none" stroke="#000000" d="M445.2766,-323.4351C463.3479,-330.0409 493.036,-340.0347 519.5484,-345 751.0214,-388.3508 814.6789,-399.5282 1048.6774,-373 1178.8771,-358.2394 1238.0554,-394.0206 1336.021,-307 1385.4086,-263.1301 1400.9268,-182.9318 1405.7976,-138.2448"/>
<polygon fill="#000000" stroke="#000000" points="1409.2881,-138.5116 1406.7757,-128.219 1402.3211,-137.8319 1409.2881,-138.5116"/>
<text text-anchor="middle" x="1121.5133" y="-375.2" font-family="Times,serif" font-size="14.00" fill="#000000">p5 &amp; p4 &amp; p3 &amp; p2</text>
</g>
<!-- 4&#45;&gt;1 -->
<g id="edge13" class="edge">
<title>4&#45;&gt;1</title>
<path fill="none" stroke="#000000" d="M446.5572,-319.0621C464.9216,-321.0409 494.1666,-323.8878 519.5484,-325 854.4162,-339.6732 960.8253,-400.2613 1272.1304,-276 1278.9491,-273.2782 1285.6662,-269.1507 1291.6256,-264.8206"/>
<polygon fill="#000000" stroke="#000000" points="1294.0202,-267.3911 1299.7384,-258.4718 1289.7062,-261.8784 1294.0202,-267.3911"/>
<text text-anchor="middle" x="977.8962" y="-356.2" font-family="Times,serif" font-size="14.00" fill="#000000">!p5 &amp; p4 &amp; p3 &amp; p2</text>
</g>
<!-- 4&#45;&gt;2 -->
<g id="edge14" class="edge">
<title>4&#45;&gt;2</title>
<path fill="none" stroke="#000000" d="M446.6785,-317.1535C509.1503,-317.3299 719.9715,-315.0367 889.115,-279 962.6225,-263.3389 980.2097,-253.9968 1048.6774,-223 1065.3254,-215.4631 1083.2206,-205.4193 1097.1069,-197.1591"/>
<polygon fill="#000000" stroke="#000000" points="1099.2652,-199.9444 1106.0154,-191.7782 1095.646,-193.9526 1099.2652,-199.9444"/>
<text text-anchor="middle" x="802.3885" y="-308.2" font-family="Times,serif" font-size="14.00" fill="#000000">!p4 &amp; p3 &amp; p2</text>
</g>
<!-- 4&#45;&gt;3 -->
<g id="edge12" class="edge">
<title>4&#45;&gt;3</title>
<path fill="none" stroke="#000000" d="M436.9366,-301.0324C454.6366,-268.4068 495.7761,-195.9287 519.5484,-181.2 587.4093,-139.1551 622.376,-184.55 697.662,-158 728.2951,-147.197 759.5807,-126.5661 779.8795,-111.6424"/>
<polygon fill="#000000" stroke="#000000" points="782.2391,-114.2475 788.1316,-105.4424 778.0343,-108.651 782.2391,-114.2475"/>
<text text-anchor="middle" x="608.6052" y="-186.2" font-family="Times,serif" font-size="14.00" fill="#000000">!p3 &amp; p2</text>
</g>
<!-- 4&#45;&gt;4 -->
<g id="edge11" class="edge">
<title>4&#45;&gt;4</title>
<path fill="none" stroke="#000000" d="M411.7994,-324.6C392.684,-337.0035 398.2299,-353 428.4369,-353 453.4521,-353 461.5549,-342.0298 452.7452,-331.2145"/>
<polygon fill="#000000" stroke="#000000" points="454.9333,-328.4798 445.0744,-324.6 450.362,-333.7811 454.9333,-328.4798"/>
<text text-anchor="middle" x="428.4369" y="-357.2" font-family="Times,serif" font-size="14.00" fill="#000000">!p2</text>
</g>
<!-- 5 -->
<g id="node6" class="node">
<title>5</title>
<ellipse fill="none" stroke="#000000" cx="163.7721" cy="-197" rx="18" ry="18"/>
<text text-anchor="middle" x="163.7721" y="-192.8" font-family="Times,serif" font-size="14.00" fill="#000000">5</text>
</g>
<!-- 5&#45;&gt;0 -->
<g id="edge21" class="edge">
<title>5&#45;&gt;0</title>
<path fill="none" stroke="#000000" d="M179.2748,-187.225C190.8953,-180.3169 207.4122,-171.3658 222.993,-166 341.9942,-125.018 380.4511,-149.2965 501.5484,-115 509.8072,-112.661 511.3356,-110.4958 519.5484,-108 642.7714,-70.553 673.6012,-45 802.3885,-45 802.3885,-45 802.3885,-45 1313.0757,-45 1341.4495,-45 1368.1054,-64.5213 1385.9069,-81.4773"/>
<polygon fill="#000000" stroke="#000000" points="1383.8914,-84.4116 1393.4373,-89.0081 1388.8413,-79.462 1383.8914,-84.4116"/>
<text text-anchor="middle" x="977.8962" y="-49.2" font-family="Times,serif" font-size="14.00" fill="#000000">p5 &amp; p4 &amp; p3 &amp; p2 &amp; p1</text>
</g>
<!-- 5&#45;&gt;1 -->
<g id="edge19" class="edge">
<title>5&#45;&gt;1</title>
<path fill="none" stroke="#000000" d="M181.1985,-202.4469C192.8937,-205.8453 208.7151,-209.9507 222.993,-212 650.6208,-273.3782 762.413,-239.9986 1194.3492,-248 1228.9127,-248.6403 1237.5713,-248.8435 1272.1304,-248 1276.177,-247.9012 1280.4466,-247.7476 1284.6403,-247.5684"/>
<polygon fill="#000000" stroke="#000000" points="1284.9165,-251.0593 1294.7384,-247.0869 1284.5831,-244.0673 1284.9165,-251.0593"/>
<text text-anchor="middle" x="802.3885" y="-255.2" font-family="Times,serif" font-size="14.00" fill="#000000">!p5 &amp; p4 &amp; p3 &amp; p2 &amp; p1</text>
</g>
<!-- 5&#45;&gt;2 -->
<g id="edge20" class="edge">
<title>5&#45;&gt;2</title>
<path fill="none" stroke="#000000" d="M181.9144,-197.069C234.2715,-197.2642 390.1467,-197.8181 519.5484,-198 754.7317,-198.3305 814.1865,-210.0366 1048.6774,-192 1063.5392,-190.8569 1079.9987,-188.6757 1093.5056,-186.6414"/>
<polygon fill="#000000" stroke="#000000" points="1094.2768,-190.0636 1103.6179,-185.0641 1093.1979,-183.1472 1094.2768,-190.0636"/>
<text text-anchor="middle" x="608.6052" y="-205.2" font-family="Times,serif" font-size="14.00" fill="#000000">!p4 &amp; p3 &amp; p2 &amp; p1</text>
</g>
<!-- 5&#45;&gt;3 -->
<g id="edge18" class="edge">
<title>5&#45;&gt;3</title>
<path fill="none" stroke="#000000" d="M181.718,-194.15C232.1277,-186.1403 379.3092,-162.7261 501.5484,-143 601.9854,-126.7922 721.2391,-107.2926 774.401,-98.5866"/>
<polygon fill="#000000" stroke="#000000" points="775.117,-102.0161 784.4197,-96.9456 773.9854,-95.1081 775.117,-102.0161"/>
<text text-anchor="middle" x="428.4369" y="-171.2" font-family="Times,serif" font-size="14.00" fill="#000000">!p3 &amp; p2 &amp; p1</text>
</g>
<!-- 5&#45;&gt;4 -->
<g id="edge17" class="edge">
<title>5&#45;&gt;4</title>
<path fill="none" stroke="#000000" d="M172.4061,-212.9136C182.3383,-229.6205 200.2446,-255.3225 222.993,-269 267.4295,-295.7175 286.8762,-280.2291 337.3254,-292.2 358.926,-297.3255 383.1694,-303.9682 401.2151,-309.0885"/>
<polygon fill="#000000" stroke="#000000" points="400.4801,-312.5186 411.0571,-311.9045 402.4057,-305.7887 400.4801,-312.5186"/>
<text text-anchor="middle" x="280.1592" y="-297.2" font-family="Times,serif" font-size="14.00" fill="#000000">!p2 &amp; p1</text>
</g>
<!-- 5&#45;&gt;5 -->
<g id="edge16" class="edge">
<title>5&#45;&gt;5</title>
<path fill="none" stroke="#000000" d="M150.8253,-209.5448C144.5268,-220.8696 148.8424,-233 163.7721,-233 174.3862,-233 179.6356,-226.8689 179.5202,-219.255"/>
<polygon fill="#000000" stroke="#000000" points="182.8537,-218.1828 176.7189,-209.5448 176.128,-220.1231 182.8537,-218.1828"/>
<text text-anchor="middle" x="163.7721" y="-237.2" font-family="Times,serif" font-size="14.00" fill="#000000">!p1</text>
</g>
<!-- 6 -->
<g id="node7" class="node">
<title>6</title>
<ellipse fill="none" stroke="#000000" cx="18" cy="-129" rx="18" ry="18"/>
<text text-anchor="middle" x="18" y="-124.8" font-family="Times,serif" font-size="14.00" fill="#000000">6</text>
</g>
<!-- 6&#45;&gt;0 -->
<g id="edge28" class="edge">
<title>6&#45;&gt;0</title>
<path fill="none" stroke="#000000" d="M21.5893,-111.2201C26.1705,-92.7204 35.7845,-63.9905 54,-46 91.6362,-8.8285 110.874,0 163.7721,0 163.7721,0 163.7721,0 1313.0757,0 1334.1904,0 1369.4368,-47.2564 1390.5304,-78.6636"/>
<polygon fill="#000000" stroke="#000000" points="1387.6429,-80.6424 1396.0811,-87.0493 1393.48,-76.7787 1387.6429,-80.6424"/>
<text text-anchor="middle" x="802.3885" y="-4.2" font-family="Times,serif" font-size="14.00" fill="#000000">p5 &amp; p4 &amp; p3 &amp; p2 &amp; p1 &amp; p0</text>
</g>
<!-- 6&#45;&gt;1 -->
<g id="edge26" class="edge">
<title>6&#45;&gt;1</title>
<path fill="none" stroke="#000000" d="M22.1739,-146.5552C38.2676,-212.1337 98.6494,-439 163.7721,-439 163.7721,-439 163.7721,-439 977.8962,-439 1068.5374,-439 1096.2805,-434.4833 1176.3492,-392 1231.0269,-362.9888 1275.8467,-303.5989 1298.0294,-270.1971"/>
<polygon fill="#000000" stroke="#000000" points="1301.1594,-271.8039 1303.6752,-261.5121 1295.2905,-267.9887 1301.1594,-271.8039"/>
<text text-anchor="middle" x="608.6052" y="-443.2" font-family="Times,serif" font-size="14.00" fill="#000000">!p5 &amp; p4 &amp; p3 &amp; p2 &amp; p1 &amp; p0</text>
</g>
<!-- 6&#45;&gt;2 -->
<g id="edge23" class="edge">
<title>6&#45;&gt;2</title>
<path fill="none" stroke="#000000" d="M36.2808,-128.502C86.9515,-127.1495 233.4949,-123.4278 355.3254,-122.2 420.3101,-121.5451 436.748,-117.2654 501.5484,-122.2 597.5422,-129.51 619.9639,-144.5062 715.662,-155 856.9609,-170.4941 1026.9795,-178.3155 1093.1914,-180.9507"/>
<polygon fill="#000000" stroke="#000000" points="1093.1327,-184.451 1103.2614,-181.343 1093.4053,-177.4563 1093.1327,-184.451"/>
<text text-anchor="middle" x="428.4369" y="-127.2" font-family="Times,serif" font-size="14.00" fill="#000000">!p4 &amp; p3 &amp; p2 &amp; p1 &amp; p0</text>
</g>
<!-- 6&#45;&gt;3 -->
<g id="edge25" class="edge">
<title>6&#45;&gt;3</title>
<path fill="none" stroke="#000000" d="M23.6761,-111.68C29.1499,-97.9386 38.8616,-79.5123 54,-70 117.9088,-29.8425 147.6074,-56.9379 222.993,-53.2 435.2614,-42.6749 690.7298,-77.1345 774.39,-89.6421"/>
<polygon fill="#000000" stroke="#000000" points="773.9715,-93.1185 784.3827,-91.1546 775.0192,-86.1974 773.9715,-93.1185"/>
<text text-anchor="middle" x="280.1592" y="-58.2" font-family="Times,serif" font-size="14.00" fill="#000000">!p3 &amp; p2 &amp; p1 &amp; p0</text>
</g>
<!-- 6&#45;&gt;4 -->
<g id="edge27" class="edge">
<title>6&#45;&gt;4</title>
<path fill="none" stroke="#000000" d="M25.909,-145.2959C32.559,-158.262 42.7609,-176.562 54,-191 110.2702,-263.2862 134.335,-285.9481 222.993,-309 284.6997,-325.0443 360.3155,-322.5937 400.3884,-319.6465"/>
<polygon fill="#000000" stroke="#000000" points="400.7881,-323.1258 410.4762,-318.8373 400.2283,-316.1482 400.7881,-323.1258"/>
<text text-anchor="middle" x="163.7721" y="-307.2" font-family="Times,serif" font-size="14.00" fill="#000000">!p2 &amp; p1 &amp; p0</text>
</g>
<!-- 6&#45;&gt;5 -->
<g id="edge24" class="edge">
<title>6&#45;&gt;5</title>
<path fill="none" stroke="#000000" d="M34.4386,-136.6683C59.5918,-148.4018 107.8552,-170.9158 137.7832,-184.8767"/>
<polygon fill="#000000" stroke="#000000" points="136.6278,-188.1997 147.17,-189.2554 139.5871,-181.856 136.6278,-188.1997"/>
<text text-anchor="middle" x="79.2756" y="-174.2" font-family="Times,serif" font-size="14.00" fill="#000000">!p1 &amp; p0</text>
</g>
<!-- 6&#45;&gt;6 -->
<g id="edge22" class="edge">
<title>6&#45;&gt;6</title>
<path fill="none" stroke="#000000" d="M7.8486,-144.1666C4.7725,-154.6641 8.1563,-165 18,-165 24.46,-165 28.1378,-160.5487 29.0337,-154.5216"/>
<polygon fill="#000000" stroke="#000000" points="32.4878,-153.8334 28.1514,-144.1666 25.5131,-154.4277 32.4878,-153.8334"/>
<text text-anchor="middle" x="18" y="-169.2" font-family="Times,serif" font-size="14.00" fill="#000000">!p0</text>
</g>
</g>
</svg>
