<?xml version="1.0" encoding="UTF-8" standalone="no"?>
<!DOCTYPE svg PUBLIC "-//W3C//DTD SVG 1.1//EN"
 "http://www.w3.org/Graphics/SVG/1.1/DTD/svg11.dtd">
<!-- Generated by graphviz version 2.40.1 (20161225.0304)
 -->
<!-- Title: automaton Pages: 1 -->
<svg width="209pt" height="136pt"
 viewBox="0.00 0.00 208.93 135.64" xmlns="http://www.w3.org/2000/svg" xmlns:xlink="http://www.w3.org/1999/xlink">
<g id="graph0" class="graph" transform="scale(1 1) rotate(0) translate(4 131.638)">
<title>automaton</title>
<polygon fill="#ffffff" stroke="transparent" points="-4,4 -4,-131.638 204.9327,-131.638 204.9327,4 -4,4"/>
<!-- 0 -->
<g id="node1" class="node">
<title>0</title>
<ellipse fill="none" stroke="#000000" cx="182.9327" cy="-49.838" rx="18" ry="18"/>
<text text-anchor="middle" x="182.9327" y="-45.638" font-family="Times,serif" font-size="14.00" fill="#000000">0</text>
</g>
<!-- 0&#45;&gt;0 -->
<g id="edge1" class="edge">
<title>0&#45;&gt;0</title>
<path fill="none" stroke="#000000" d="M174.9163,-66.1283C172.9832,-76.2272 175.6554,-85.838 182.9327,-85.838 187.5947,-85.838 190.3668,-81.8937 191.2489,-76.4036"/>
<polygon fill="#000000" stroke="#000000" points="194.7394,-76.0219 190.9491,-66.1283 187.7424,-76.2261 194.7394,-76.0219"/>
<text text-anchor="middle" x="182.9327" y="-90.038" font-family="Times,serif" font-size="14.00" fill="#000000">true</text>
</g>
<!-- 1 -->
<g id="node2" class="node">
<title>1</title>
<ellipse fill="none" stroke="#000000" cx="85.9327" cy="-49.838" rx="18" ry="18"/>
<ellipse fill="none" stroke="#000000" cx="85.9327" cy="-49.838" rx="22" ry="22"/>
<text text-anchor="middle" x="85.9327" y="-45.638" font-family="Times,serif" font-size="14.00" fill="#000000">1</text>
</g>
<!-- 1&#45;&gt;0 -->
<g id="edge3" class="edge">
<title>1&#45;&gt;0</title>
<path fill="none" stroke="#000000" d="M94.068,-70.4445C100.5318,-83.7494 110.9878,-99.9905 125.9327,-107.838 134.1961,-112.1771 138.7764,-112.3752 146.9327,-107.838 158.9887,-101.1315 167.5241,-88.5318 173.248,-76.785"/>
<polygon fill="#000000" stroke="#000000" points="176.6106,-77.8309 177.4103,-67.2663 170.1969,-75.0264 176.6106,-77.8309"/>
<text text-anchor="middle" x="136.4327" y="-115.038" font-family="Times,serif" font-size="14.00" fill="#000000">p10</text>
</g>
<!-- 1&#45;&gt;0 -->
<g id="edge4" class="edge">
<title>1&#45;&gt;0</title>
<path fill="none" stroke="#000000" d="M105.3059,-60.5349C111.6817,-63.5099 118.9338,-66.3358 125.9327,-67.838 135.0582,-69.7967 137.849,-69.9824 146.9327,-67.838 150.6901,-66.951 154.5025,-65.6084 158.1711,-64.0483"/>
<polygon fill="#000000" stroke="#000000" points="159.9355,-67.0827 167.4099,-59.5737 156.8842,-60.7827 159.9355,-67.0827"/>
<text text-anchor="middle" x="136.4327" y="-73.038" font-family="Times,serif" font-size="14.00" fill="#000000">p9</text>
</g>
<!-- 1&#45;&gt;0 -->
<g id="edge5" class="edge">
<title>1&#45;&gt;0</title>
<path fill="none" stroke="#000000" d="M107.9526,-47.9271C119.5491,-47.1485 134.0087,-46.5362 146.9327,-47.038 149.5088,-47.138 152.1863,-47.2782 154.8661,-47.443"/>
<polygon fill="#000000" stroke="#000000" points="154.7792,-50.9456 165.0034,-48.168 155.2786,-43.9635 154.7792,-50.9456"/>
<text text-anchor="middle" x="136.4327" y="-51.038" font-family="Times,serif" font-size="14.00" fill="#000000">p8</text>
</g>
<!-- 1&#45;&gt;0 -->
<g id="edge6" class="edge">
<title>1&#45;&gt;0</title>
<path fill="none" stroke="#000000" d="M103.7107,-36.4826C110.3333,-32.281 118.1412,-28.1807 125.9327,-26.038 134.9319,-23.5632 137.9946,-23.3506 146.9327,-26.038 151.7041,-27.4726 156.4258,-29.7679 160.8017,-32.3799"/>
<polygon fill="#000000" stroke="#000000" points="158.948,-35.3509 169.2033,-38.0119 162.8458,-29.5364 158.948,-35.3509"/>
<text text-anchor="middle" x="136.4327" y="-30.038" font-family="Times,serif" font-size="14.00" fill="#000000">p7</text>
</g>
<!-- 1&#45;&gt;0 -->
<g id="edge7" class="edge">
<title>1&#45;&gt;0</title>
<path fill="none" stroke="#000000" d="M96.939,-30.2498C103.8204,-20.0993 113.7014,-8.674 125.9327,-3.038 134.4094,.868 138.5594,1.085 146.9327,-3.038 156.3518,-7.676 163.9964,-16.094 169.7788,-24.5249"/>
<polygon fill="#000000" stroke="#000000" points="166.8851,-26.5 175.1269,-33.1577 172.8358,-22.8135 166.8851,-26.5"/>
<text text-anchor="middle" x="136.4327" y="-7.038" font-family="Times,serif" font-size="14.00" fill="#000000">p6</text>
</g>
<!-- 1&#45;&gt;1 -->
<g id="edge2" class="edge">
<title>1&#45;&gt;1</title>
<path fill="none" stroke="#000000" d="M76.8873,-70.0077C75.4957,-80.437 78.5108,-89.838 85.9327,-89.838 90.8033,-89.838 93.7761,-85.7893 94.851,-80.0583"/>
<polygon fill="#000000" stroke="#000000" points="98.3513,-80.0512 94.9781,-70.0077 91.3519,-79.9626 98.3513,-80.0512"/>
<text text-anchor="middle" x="85.9327" y="-94.038" font-family="Times,serif" font-size="14.00" fill="#000000">!p10 &amp; !p9 &amp; !p8 &amp; !p7 &amp; !p6</text>
</g>
</g>
</svg>
