<?xml version="1.0" encoding="UTF-8" standalone="no"?>
<!DOCTYPE svg PUBLIC "-//W3C//DTD SVG 1.1//EN"
 "http://www.w3.org/Graphics/SVG/1.1/DTD/svg11.dtd">
<!-- Generated by graphviz version 2.40.1 (20161225.0304)
 -->
<!-- Title: automaton Pages: 1 -->
<svg width="896pt" height="328pt"
 viewBox="0.00 0.00 895.66 327.99" xmlns="http://www.w3.org/2000/svg" xmlns:xlink="http://www.w3.org/1999/xlink">
<g id="graph0" class="graph" transform="scale(1 1) rotate(0) translate(4 323.9942)">
<title>automaton</title>
<polygon fill="#ffffff" stroke="transparent" points="-4,4 -4,-323.9942 891.662,-323.9942 891.662,4 -4,4"/>
<!-- 0 -->
<g id="node1" class="node">
<title>0</title>
<ellipse fill="none" stroke="#000000" cx="865.662" cy="-151.1942" rx="18" ry="18"/>
<ellipse fill="none" stroke="#000000" cx="865.662" cy="-151.1942" rx="22" ry="22"/>
<text text-anchor="middle" x="865.662" y="-146.9942" font-family="Times,serif" font-size="14.00" fill="#000000">0</text>
</g>
<!-- 0&#45;&gt;0 -->
<g id="edge1" class="edge">
<title>0&#45;&gt;0</title>
<path fill="none" stroke="#000000" d="M857.2918,-171.775C856.1336,-182.0389 858.9237,-191.1942 865.662,-191.1942 869.9787,-191.1942 872.6751,-187.4369 873.7511,-182.0378"/>
<polygon fill="#000000" stroke="#000000" points="877.257,-181.8671 874.0322,-171.775 870.2596,-181.6754 877.257,-181.8671"/>
<text text-anchor="middle" x="865.662" y="-195.3942" font-family="Times,serif" font-size="14.00" fill="#000000">true</text>
</g>
<!-- 1 -->
<g id="node2" class="node">
<title>1</title>
<ellipse fill="none" stroke="#000000" cx="770.7167" cy="-151.1942" rx="18" ry="18"/>
<text text-anchor="middle" x="770.7167" y="-146.9942" font-family="Times,serif" font-size="14.00" fill="#000000">1</text>
</g>
<!-- 1&#45;&gt;0 -->
<g id="edge3" class="edge">
<title>1&#45;&gt;0</title>
<path fill="none" stroke="#000000" d="M789.0231,-151.1942C801.5114,-151.1942 818.3961,-151.1942 833.1387,-151.1942"/>
<polygon fill="#000000" stroke="#000000" points="833.4016,-154.6943 843.4015,-151.1942 833.4015,-147.6943 833.4016,-154.6943"/>
<text text-anchor="middle" x="818.662" y="-155.3942" font-family="Times,serif" font-size="14.00" fill="#000000">p0</text>
</g>
<!-- 1&#45;&gt;1 -->
<g id="edge2" class="edge">
<title>1&#45;&gt;1</title>
<path fill="none" stroke="#000000" d="M762.7003,-167.4845C760.7672,-177.5833 763.4394,-187.1942 770.7167,-187.1942 775.3787,-187.1942 778.1508,-183.2499 779.0329,-177.7598"/>
<polygon fill="#000000" stroke="#000000" points="782.5234,-177.3781 778.7331,-167.4845 775.5264,-177.5823 782.5234,-177.3781"/>
<text text-anchor="middle" x="770.7167" y="-191.3942" font-family="Times,serif" font-size="14.00" fill="#000000">!p0</text>
</g>
<!-- 2 -->
<g id="node3" class="node">
<title>2</title>
<ellipse fill="none" stroke="#000000" cx="18" cy="-190.1942" rx="18" ry="18"/>
<text text-anchor="middle" x="18" y="-185.9942" font-family="Times,serif" font-size="14.00" fill="#000000">2</text>
</g>
<!-- 2&#45;&gt;0 -->
<g id="edge8" class="edge">
<title>2&#45;&gt;0</title>
<path fill="none" stroke="#000000" d="M27.6076,-205.4339C48.3724,-236.278 100.6907,-303.1942 163.7721,-303.1942 163.7721,-303.1942 163.7721,-303.1942 770.7167,-303.1942 826.886,-303.1942 851.0508,-227.6067 860.417,-183.0381"/>
<polygon fill="#000000" stroke="#000000" points="863.9011,-183.4591 862.3932,-172.9721 857.0322,-182.1105 863.9011,-183.4591"/>
<text text-anchor="middle" x="478.7125" y="-307.3942" font-family="Times,serif" font-size="14.00" fill="#000000">p0 &amp; p2 &amp; p3 &amp; p1</text>
</g>
<!-- 2&#45;&gt;1 -->
<g id="edge6" class="edge">
<title>2&#45;&gt;1</title>
<path fill="none" stroke="#000000" d="M36.0926,-188.9492C71.8112,-186.5129 153.9174,-181.0199 222.993,-177.1942 448.1352,-164.7249 504.5445,-164.028 729.7714,-153.1942 733.8145,-152.9997 738.0822,-152.7929 742.275,-152.5889"/>
<polygon fill="#000000" stroke="#000000" points="742.5553,-156.0795 752.3727,-152.096 742.214,-149.0878 742.5553,-156.0795"/>
<text text-anchor="middle" x="348.7104" y="-177.3942" font-family="Times,serif" font-size="14.00" fill="#000000">!p0 &amp; p2 &amp; p3 &amp; p1</text>
</g>
<!-- 2&#45;&gt;2 -->
<g id="edge5" class="edge">
<title>2&#45;&gt;2</title>
<path fill="none" stroke="#000000" d="M7.8486,-205.3608C4.7725,-215.8582 8.1563,-226.1942 18,-226.1942 24.46,-226.1942 28.1378,-221.7429 29.0337,-215.7158"/>
<polygon fill="#000000" stroke="#000000" points="32.4878,-215.0275 28.1514,-205.3608 25.5131,-215.6219 32.4878,-215.0275"/>
<text text-anchor="middle" x="18" y="-230.3942" font-family="Times,serif" font-size="14.00" fill="#000000">!p1</text>
</g>
<!-- 4 -->
<g id="node4" class="node">
<title>4</title>
<ellipse fill="none" stroke="#000000" cx="163.7721" cy="-216.1942" rx="18" ry="18"/>
<text text-anchor="middle" x="163.7721" y="-211.9942" font-family="Times,serif" font-size="14.00" fill="#000000">4</text>
</g>
<!-- 2&#45;&gt;4 -->
<g id="edge4" class="edge">
<title>2&#45;&gt;4</title>
<path fill="none" stroke="#000000" d="M35.8745,-193.3823C60.7921,-197.8266 106.2176,-205.9287 135.6847,-211.1845"/>
<polygon fill="#000000" stroke="#000000" points="135.2921,-214.6696 145.7514,-212.98 136.5213,-207.7784 135.2921,-214.6696"/>
<text text-anchor="middle" x="79.2756" y="-209.3942" font-family="Times,serif" font-size="14.00" fill="#000000">!p3 &amp; p1</text>
</g>
<!-- 5 -->
<g id="node5" class="node">
<title>5</title>
<ellipse fill="none" stroke="#000000" cx="348.7104" cy="-86.1942" rx="18" ry="18"/>
<text text-anchor="middle" x="348.7104" y="-81.9942" font-family="Times,serif" font-size="14.00" fill="#000000">5</text>
</g>
<!-- 2&#45;&gt;5 -->
<g id="edge7" class="edge">
<title>2&#45;&gt;5</title>
<path fill="none" stroke="#000000" d="M27.9266,-174.8163C34.3526,-166.0542 43.4715,-155.5812 54,-149.1942 140.8105,-96.5313 265.3617,-87.5084 320.5488,-86.225"/>
<polygon fill="#000000" stroke="#000000" points="320.688,-89.7233 330.6297,-86.0609 320.574,-82.7242 320.688,-89.7233"/>
<text text-anchor="middle" x="163.7721" y="-122.3942" font-family="Times,serif" font-size="14.00" fill="#000000">!p2 &amp; p3 &amp; p1</text>
</g>
<!-- 4&#45;&gt;0 -->
<g id="edge15" class="edge">
<title>4&#45;&gt;0</title>
<path fill="none" stroke="#000000" d="M180.8157,-222.7567C213.0747,-234.5692 285.4946,-258.1942 348.7104,-258.1942 348.7104,-258.1942 348.7104,-258.1942 770.7167,-258.1942 812.017,-258.1942 839.7248,-213.0427 854.0717,-181.4003"/>
<polygon fill="#000000" stroke="#000000" points="857.3456,-182.6471 858.0955,-172.0789 850.9189,-179.8728 857.3456,-182.6471"/>
<text text-anchor="middle" x="592.7693" y="-262.3942" font-family="Times,serif" font-size="14.00" fill="#000000">p0 &amp; p2 &amp; p3</text>
</g>
<!-- 4&#45;&gt;1 -->
<g id="edge14" class="edge">
<title>4&#45;&gt;1</title>
<path fill="none" stroke="#000000" d="M181.8771,-216.9121C266.9796,-220.0443 627.3768,-230.5389 729.7714,-188.1942 737.9888,-184.7959 745.6297,-178.9984 752.032,-172.988"/>
<polygon fill="#000000" stroke="#000000" points="754.9388,-175.0216 759.4293,-165.4255 749.9347,-170.1268 754.9388,-175.0216"/>
<text text-anchor="middle" x="478.7125" y="-223.3942" font-family="Times,serif" font-size="14.00" fill="#000000">!p0 &amp; p2 &amp; p3</text>
</g>
<!-- 4&#45;&gt;4 -->
<g id="edge13" class="edge">
<title>4&#45;&gt;4</title>
<path fill="none" stroke="#000000" d="M150.8253,-228.739C144.5268,-240.0638 148.8424,-252.1942 163.7721,-252.1942 174.3862,-252.1942 179.6356,-246.0631 179.5202,-238.4492"/>
<polygon fill="#000000" stroke="#000000" points="182.8537,-237.377 176.7189,-228.739 176.128,-239.3173 182.8537,-237.377"/>
<text text-anchor="middle" x="163.7721" y="-256.3942" font-family="Times,serif" font-size="14.00" fill="#000000">!p3</text>
</g>
<!-- 4&#45;&gt;5 -->
<g id="edge12" class="edge">
<title>4&#45;&gt;5</title>
<path fill="none" stroke="#000000" d="M178.5938,-205.7755C210.6518,-183.2407 286.6523,-129.8171 325.2883,-102.6585"/>
<polygon fill="#000000" stroke="#000000" points="327.6499,-105.2766 333.8182,-96.6625 323.6244,-99.5499 327.6499,-105.2766"/>
<text text-anchor="middle" x="248.2686" y="-177.3942" font-family="Times,serif" font-size="14.00" fill="#000000">!p2 &amp; p3</text>
</g>
<!-- 5&#45;&gt;0 -->
<g id="edge19" class="edge">
<title>5&#45;&gt;0</title>
<path fill="none" stroke="#000000" d="M364.7797,-77.5016C379.7638,-69.6379 402.893,-58.1104 423.8766,-50.1942 551.5306,-2.0359 601.019,20.7455 729.7714,-24.3942 781.5419,-42.5446 824.4843,-92.5132 847.4906,-124.0321"/>
<polygon fill="#000000" stroke="#000000" points="844.7907,-126.2746 853.4417,-132.3911 850.4931,-122.2148 844.7907,-126.2746"/>
<text text-anchor="middle" x="690.8808" y="-29.3942" font-family="Times,serif" font-size="14.00" fill="#000000">p0 &amp; p2 &amp; p3</text>
</g>
<!-- 5&#45;&gt;1 -->
<g id="edge18" class="edge">
<title>5&#45;&gt;1</title>
<path fill="none" stroke="#000000" d="M366.5739,-88.9456C432.485,-99.0977 662.3554,-134.5037 742.7205,-146.882"/>
<polygon fill="#000000" stroke="#000000" points="742.1964,-150.3425 752.6127,-148.4057 743.262,-143.4241 742.1964,-150.3425"/>
<text text-anchor="middle" x="592.7693" y="-134.3942" font-family="Times,serif" font-size="14.00" fill="#000000">!p0 &amp; p2 &amp; p3</text>
</g>
<!-- 5&#45;&gt;5 -->
<g id="edge16" class="edge">
<title>5&#45;&gt;5</title>
<path fill="none" stroke="#000000" d="M334.3595,-97.2514C325.3721,-108.974 330.1557,-122.1942 348.7104,-122.1942 362.4815,-122.1942 368.6668,-114.9119 367.2665,-106.3645"/>
<polygon fill="#000000" stroke="#000000" points="370.4292,-104.8648 363.0613,-97.2514 364.0733,-107.7978 370.4292,-104.8648"/>
<text text-anchor="middle" x="348.7104" y="-126.3942" font-family="Times,serif" font-size="14.00" fill="#000000">!p2</text>
</g>
<!-- 3 -->
<g id="node6" class="node">
<title>3</title>
<ellipse fill="none" stroke="#000000" cx="592.7693" cy="-41.1942" rx="18" ry="18"/>
<text text-anchor="middle" x="592.7693" y="-36.9942" font-family="Times,serif" font-size="14.00" fill="#000000">3</text>
</g>
<!-- 5&#45;&gt;3 -->
<g id="edge17" class="edge">
<title>5&#45;&gt;3</title>
<path fill="none" stroke="#000000" d="M366.6566,-82.8852C408.7934,-75.116 514.3041,-55.6617 564.8806,-46.3363"/>
<polygon fill="#000000" stroke="#000000" points="565.5972,-49.7633 574.7968,-44.508 564.3279,-42.8793 565.5972,-49.7633"/>
<text text-anchor="middle" x="478.7125" y="-76.3942" font-family="Times,serif" font-size="14.00" fill="#000000">p2 &amp; !p3</text>
</g>
<!-- 3&#45;&gt;0 -->
<g id="edge11" class="edge">
<title>3&#45;&gt;0</title>
<path fill="none" stroke="#000000" d="M611.1374,-41.3526C638.0419,-42.1374 689.3542,-45.7515 729.7714,-61.1942 772.4665,-77.5072 815.3812,-109.0625 841.2423,-130.1324"/>
<polygon fill="#000000" stroke="#000000" points="839.0836,-132.889 849.0176,-136.5722 843.5487,-127.498 839.0836,-132.889"/>
<text text-anchor="middle" x="770.7167" y="-99.3942" font-family="Times,serif" font-size="14.00" fill="#000000">p0 &amp; p3</text>
</g>
<!-- 3&#45;&gt;1 -->
<g id="edge10" class="edge">
<title>3&#45;&gt;1</title>
<path fill="none" stroke="#000000" d="M609.9886,-47.1347C642.182,-58.4418 710.0211,-83.2753 729.7714,-98.3942 740.0301,-106.2473 749.1125,-117.261 756.1004,-127.1989"/>
<polygon fill="#000000" stroke="#000000" points="753.2134,-129.1781 761.679,-135.5487 759.0339,-125.2894 753.2134,-129.1781"/>
<text text-anchor="middle" x="690.8808" y="-103.3942" font-family="Times,serif" font-size="14.00" fill="#000000">!p0 &amp; p3</text>
</g>
<!-- 3&#45;&gt;3 -->
<g id="edge9" class="edge">
<title>3&#45;&gt;3</title>
<path fill="none" stroke="#000000" d="M578.4318,-52.622C569.9979,-64.2508 574.7771,-77.1942 592.7693,-77.1942 605.9823,-77.1942 612.0695,-70.2137 611.0307,-61.8998"/>
<polygon fill="#000000" stroke="#000000" points="614.2258,-60.4688 607.1068,-52.622 607.7787,-63.1955 614.2258,-60.4688"/>
<text text-anchor="middle" x="592.7693" y="-81.3942" font-family="Times,serif" font-size="14.00" fill="#000000">!p3</text>
</g>
</g>
</svg>
