<?xml version="1.0" encoding="UTF-8" standalone="no"?>
<!DOCTYPE svg PUBLIC "-//W3C//DTD SVG 1.1//EN"
 "http://www.w3.org/Graphics/SVG/1.1/DTD/svg11.dtd">
<!-- Generated by graphviz version 2.40.1 (20161225.0304)
 -->
<!-- Title: automaton Pages: 1 -->
<svg width="270pt" height="87pt"
 viewBox="0.00 0.00 270.16 86.80" xmlns="http://www.w3.org/2000/svg" xmlns:xlink="http://www.w3.org/1999/xlink">
<g id="graph0" class="graph" transform="scale(1 1) rotate(0) translate(4 82.8)">
<title>automaton</title>
<polygon fill="#ffffff" stroke="transparent" points="-4,4 -4,-82.8 266.1571,-82.8 266.1571,4 -4,4"/>
<!-- 0 -->
<g id="node1" class="node">
<title>0</title>
<ellipse fill="none" stroke="#000000" cx="240.1571" cy="-22" rx="18" ry="18"/>
<ellipse fill="none" stroke="#000000" cx="240.1571" cy="-22" rx="22" ry="22"/>
<text text-anchor="middle" x="240.1571" y="-17.8" font-family="Times,serif" font-size="14.00" fill="#000000">0</text>
</g>
<!-- 0&#45;&gt;0 -->
<g id="edge1" class="edge">
<title>0&#45;&gt;0</title>
<path fill="none" stroke="#000000" d="M231.7869,-42.5808C230.6287,-52.8447 233.4188,-62 240.1571,-62 244.4738,-62 247.1702,-58.2427 248.2462,-52.8436"/>
<polygon fill="#000000" stroke="#000000" points="251.7521,-52.6729 248.5273,-42.5808 244.7547,-52.4812 251.7521,-52.6729"/>
<text text-anchor="middle" x="240.1571" y="-66.2" font-family="Times,serif" font-size="14.00" fill="#000000">true</text>
</g>
<!-- 1 -->
<g id="node2" class="node">
<title>1</title>
<ellipse fill="none" stroke="#000000" cx="27.6059" cy="-22" rx="18" ry="18"/>
<text text-anchor="middle" x="27.6059" y="-17.8" font-family="Times,serif" font-size="14.00" fill="#000000">1</text>
</g>
<!-- 1&#45;&gt;1 -->
<g id="edge3" class="edge">
<title>1&#45;&gt;1</title>
<path fill="none" stroke="#000000" d="M17.4545,-37.1666C14.3784,-47.6641 17.7622,-58 27.6059,-58 34.0659,-58 37.7437,-53.5487 38.6396,-47.5216"/>
<polygon fill="#000000" stroke="#000000" points="42.0937,-46.8334 37.7573,-37.1666 35.119,-47.4277 42.0937,-46.8334"/>
<text text-anchor="middle" x="27.6059" y="-62.2" font-family="Times,serif" font-size="14.00" fill="#000000">!p2 &amp; !p1</text>
</g>
<!-- 2 -->
<g id="node3" class="node">
<title>2</title>
<ellipse fill="none" stroke="#000000" cx="150.1571" cy="-22" rx="18" ry="18"/>
<text text-anchor="middle" x="150.1571" y="-17.8" font-family="Times,serif" font-size="14.00" fill="#000000">2</text>
</g>
<!-- 1&#45;&gt;2 -->
<g id="edge2" class="edge">
<title>1&#45;&gt;2</title>
<path fill="none" stroke="#000000" d="M45.6888,-22C65.7818,-22 98.482,-22 121.9471,-22"/>
<polygon fill="#000000" stroke="#000000" points="122.0001,-25.5001 132.0001,-22 122,-18.5001 122.0001,-25.5001"/>
<text text-anchor="middle" x="88.8815" y="-26.2" font-family="Times,serif" font-size="14.00" fill="#000000">p2 &amp; !p1</text>
</g>
<!-- 2&#45;&gt;0 -->
<g id="edge5" class="edge">
<title>2&#45;&gt;0</title>
<path fill="none" stroke="#000000" d="M168.3699,-22C179.7181,-22 194.6398,-22 207.9377,-22"/>
<polygon fill="#000000" stroke="#000000" points="208.1551,-25.5001 218.155,-22 208.155,-18.5001 208.1551,-25.5001"/>
<text text-anchor="middle" x="193.1571" y="-26.2" font-family="Times,serif" font-size="14.00" fill="#000000">p1</text>
</g>
<!-- 2&#45;&gt;2 -->
<g id="edge4" class="edge">
<title>2&#45;&gt;2</title>
<path fill="none" stroke="#000000" d="M142.7743,-38.6641C141.1337,-48.625 143.5946,-58 150.1571,-58 154.3612,-58 156.882,-54.1525 157.7196,-48.7682"/>
<polygon fill="#000000" stroke="#000000" points="161.2172,-48.6002 157.5399,-38.6641 154.2183,-48.7247 161.2172,-48.6002"/>
<text text-anchor="middle" x="150.1571" y="-62.2" font-family="Times,serif" font-size="14.00" fill="#000000">!p1</text>
</g>
</g>
</svg>
