<?xml version="1.0" encoding="UTF-8" standalone="no"?>
<!DOCTYPE svg PUBLIC "-//W3C//DTD SVG 1.1//EN"
 "http://www.w3.org/Graphics/SVG/1.1/DTD/svg11.dtd">
<!-- Generated by graphviz version 2.40.1 (20161225.0304)
 -->
<!-- Title: automaton Pages: 1 -->
<svg width="439pt" height="133pt"
 viewBox="0.00 0.00 439.15 133.00" xmlns="http://www.w3.org/2000/svg" xmlns:xlink="http://www.w3.org/1999/xlink">
<g id="graph0" class="graph" transform="scale(1 1) rotate(0) translate(4 129)">
<title>automaton</title>
<polygon fill="#ffffff" stroke="transparent" points="-4,4 -4,-129 435.1501,-129 435.1501,4 -4,4"/>
<!-- 0 -->
<g id="node1" class="node">
<title>0</title>
<ellipse fill="none" stroke="#000000" cx="27.6059" cy="-18" rx="18" ry="18"/>
<text text-anchor="middle" x="27.6059" y="-13.8" font-family="Times,serif" font-size="14.00" fill="#000000">0</text>
</g>
<!-- 0&#45;&gt;0 -->
<g id="edge2" class="edge">
<title>0&#45;&gt;0</title>
<path fill="none" stroke="#000000" d="M17.4545,-33.1666C14.3784,-43.6641 17.7622,-54 27.6059,-54 34.0659,-54 37.7437,-49.5487 38.6396,-43.5216"/>
<polygon fill="#000000" stroke="#000000" points="42.0937,-42.8334 37.7573,-33.1666 35.119,-43.4277 42.0937,-42.8334"/>
<text text-anchor="middle" x="27.6059" y="-58.2" font-family="Times,serif" font-size="14.00" fill="#000000">!p1 &amp; !p3</text>
</g>
<!-- 1 -->
<g id="node2" class="node">
<title>1</title>
<ellipse fill="none" stroke="#000000" cx="150.1571" cy="-18" rx="18" ry="18"/>
<text text-anchor="middle" x="150.1571" y="-13.8" font-family="Times,serif" font-size="14.00" fill="#000000">1</text>
</g>
<!-- 0&#45;&gt;1 -->
<g id="edge1" class="edge">
<title>0&#45;&gt;1</title>
<path fill="none" stroke="#000000" d="M45.6888,-18C65.7818,-18 98.482,-18 121.9471,-18"/>
<polygon fill="#000000" stroke="#000000" points="122.0001,-21.5001 132.0001,-18 122,-14.5001 122.0001,-21.5001"/>
<text text-anchor="middle" x="88.8815" y="-22.2" font-family="Times,serif" font-size="14.00" fill="#000000">p1 &amp; !p3</text>
</g>
<!-- 1&#45;&gt;1 -->
<g id="edge5" class="edge">
<title>1&#45;&gt;1</title>
<path fill="none" stroke="#000000" d="M140.0057,-33.1666C136.9296,-43.6641 140.3134,-54 150.1571,-54 156.6171,-54 160.2949,-49.5487 161.1908,-43.5216"/>
<polygon fill="#000000" stroke="#000000" points="164.6449,-42.8334 160.3085,-33.1666 157.6702,-43.4277 164.6449,-42.8334"/>
<text text-anchor="middle" x="150.1571" y="-58.2" font-family="Times,serif" font-size="14.00" fill="#000000">!p3</text>
</g>
<!-- 3 -->
<g id="node3" class="node">
<title>3</title>
<ellipse fill="none" stroke="#000000" cx="277.6536" cy="-55" rx="18" ry="18"/>
<text text-anchor="middle" x="277.6536" y="-50.8" font-family="Times,serif" font-size="14.00" fill="#000000">3</text>
</g>
<!-- 1&#45;&gt;3 -->
<g id="edge3" class="edge">
<title>1&#45;&gt;3</title>
<path fill="none" stroke="#000000" d="M167.6176,-23.0671C188.9566,-29.2598 225.3086,-39.8093 250.355,-47.0778"/>
<polygon fill="#000000" stroke="#000000" points="249.4156,-50.4495 259.9948,-49.8754 251.3665,-43.7269 249.4156,-50.4495"/>
<text text-anchor="middle" x="211.4327" y="-48.2" font-family="Times,serif" font-size="14.00" fill="#000000">!p0 &amp; p3</text>
</g>
<!-- 2 -->
<g id="node4" class="node">
<title>2</title>
<ellipse fill="none" stroke="#000000" cx="409.1501" cy="-35" rx="18" ry="18"/>
<ellipse fill="none" stroke="#000000" cx="409.1501" cy="-35" rx="22" ry="22"/>
<text text-anchor="middle" x="409.1501" y="-30.8" font-family="Times,serif" font-size="14.00" fill="#000000">2</text>
</g>
<!-- 1&#45;&gt;2 -->
<g id="edge4" class="edge">
<title>1&#45;&gt;2</title>
<path fill="none" stroke="#000000" d="M168.2759,-15.3994C196.5948,-11.7358 253.0318,-6.0466 300.5989,-11.2 326.9729,-14.0573 356.331,-20.7112 377.8591,-26.2591"/>
<polygon fill="#000000" stroke="#000000" points="377.1888,-29.702 387.7511,-28.8722 378.9767,-22.9342 377.1888,-29.702"/>
<text text-anchor="middle" x="277.6536" y="-16.2" font-family="Times,serif" font-size="14.00" fill="#000000">p0 &amp; p3</text>
</g>
<!-- 3&#45;&gt;3 -->
<g id="edge9" class="edge">
<title>3&#45;&gt;3</title>
<path fill="none" stroke="#000000" d="M266.7409,-69.4167C262.9301,-80.166 266.5677,-91 277.6536,-91 285.102,-91 289.188,-86.1094 289.9118,-79.6397"/>
<polygon fill="#000000" stroke="#000000" points="293.3413,-78.8745 288.5663,-69.4167 286.4012,-79.7879 293.3413,-78.8745"/>
<text text-anchor="middle" x="277.6536" y="-95.2" font-family="Times,serif" font-size="14.00" fill="#000000">!p0</text>
</g>
<!-- 3&#45;&gt;2 -->
<g id="edge10" class="edge">
<title>3&#45;&gt;2</title>
<path fill="none" stroke="#000000" d="M295.7941,-56.7087C314.4429,-57.9779 344.1992,-58.6412 369.1501,-53 372.8593,-52.1614 376.6435,-50.965 380.3322,-49.5824"/>
<polygon fill="#000000" stroke="#000000" points="381.9043,-52.7179 389.7567,-45.6052 379.1826,-46.2686 381.9043,-52.7179"/>
<text text-anchor="middle" x="343.8745" y="-62.2" font-family="Times,serif" font-size="14.00" fill="#000000">p0</text>
</g>
<!-- 2&#45;&gt;3 -->
<g id="edge6" class="edge">
<title>2&#45;&gt;3</title>
<path fill="none" stroke="#000000" d="M386.8931,-32.7523C368.3767,-31.4848 341.4507,-31.0456 318.5989,-36.2 313.2982,-37.3956 307.8592,-39.3267 302.7473,-41.5061"/>
<polygon fill="#000000" stroke="#000000" points="301.0068,-38.4566 293.4425,-45.875 303.982,-44.793 301.0068,-38.4566"/>
<text text-anchor="middle" x="343.8745" y="-41.2" font-family="Times,serif" font-size="14.00" fill="#000000">!p0 &amp; p3</text>
</g>
<!-- 2&#45;&gt;2 -->
<g id="edge7" class="edge">
<title>2&#45;&gt;2</title>
<path fill="none" stroke="#000000" d="M403.2688,-56.3994C402.6272,-66.3265 404.5876,-75 409.1501,-75 412.0017,-75 413.8368,-71.6119 414.6555,-66.6472"/>
<polygon fill="#000000" stroke="#000000" points="418.1624,-66.521 415.0314,-56.3994 411.1671,-66.2643 418.1624,-66.521"/>
<text text-anchor="middle" x="409.1501" y="-79.2" font-family="Times,serif" font-size="14.00" fill="#000000">p0</text>
</g>
<!-- 2&#45;&gt;2 -->
<g id="edge8" class="edge">
<title>2&#45;&gt;2</title>
<path fill="none" stroke="#000000" d="M399.3657,-54.9104C394.4511,-73.2413 397.7126,-93 409.1501,-93 418.5324,-93 422.413,-79.7041 420.7918,-64.8073"/>
<polygon fill="#000000" stroke="#000000" points="424.219,-64.0933 418.9345,-54.9104 417.3391,-65.3844 424.219,-64.0933"/>
<text text-anchor="middle" x="409.1501" y="-97.2" font-family="Times,serif" font-size="14.00" fill="#000000">!p3</text>
</g>
</g>
</svg>
